<?xml version="1.0" standalone="no"?>
<!DOCTYPE svg PUBLIC "-//W3C//DTD SVG 20010904//EN"
 "http://www.w3.org/TR/2001/REC-SVG-20010904/DTD/svg10.dtd">
<svg version="1.0" xmlns="http://www.w3.org/2000/svg"
 width="1004.000000pt" height="591.000000pt" viewBox="0 0 1004.000000 591.000000"
 preserveAspectRatio="xMidYMid meet">

<g transform="translate(0.000000,591.000000) scale(0.100000,-0.100000)"
fill="#000000" stroke="none">
<path d="M4399 4348 c-13 -18 -47 -60 -76 -92 -29 -33 -64 -81 -77 -107 -23
-46 -24 -47 -30 -23 -4 14 -4 41 0 61 6 34 6 35 -15 24 -31 -17 -79 -87 -93
-135 -13 -47 -22 -28 -16 35 3 37 3 38 -17 25 -46 -30 -85 -114 -85 -185 0
-45 -9 -35 -18 20 l-8 44 -27 -54 c-19 -40 -27 -70 -27 -110 0 -50 -1 -53 -15
-35 -8 10 -15 27 -15 36 0 40 -20 25 -35 -27 -13 -42 -14 -66 -7 -100 8 -39 8
-44 -5 -33 -8 6 -22 27 -32 46 l-18 35 -12 -49 c-10 -40 -9 -58 3 -98 l15 -49
-35 34 -34 33 0 -41 c0 -23 4 -53 10 -67 7 -20 6 -24 -5 -19 -19 7 -21 -48 -4
-80 8 -13 8 -22 2 -24 -7 -3 -7 -19 0 -48 6 -25 7 -48 4 -52 -9 -8 -188 14
-306 38 -180 37 -376 114 -514 202 -82 53 -182 151 -238 236 -66 98 -71 102
-25 17 126 -232 338 -402 629 -502 l102 -35 -60 6 c-238 25 -513 120 -617 213
-42 37 -42 37 -20 5 66 -94 303 -224 566 -310 61 -20 114 -39 119 -43 13 -11
-155 10 -243 31 -206 48 -419 200 -487 347 -14 30 -23 62 -20 74 4 15 3 18 -5
10 -6 -6 -11 -25 -10 -42 1 -55 43 -123 126 -205 116 -116 263 -187 454 -221
l77 -13 -70 5 c-89 8 -223 46 -298 86 -72 39 -177 135 -270 248 -141 170 -275
280 -341 280 -13 0 -1 -10 30 -24 65 -30 165 -124 272 -256 47 -58 90 -110 94
-116 5 -7 -20 0 -54 14 -52 21 -80 26 -155 26 -76 1 -95 -2 -110 -17 -17 -17
-17 -18 10 -8 41 16 115 13 178 -5 52 -15 193 -83 186 -90 -2 -2 -35 7 -74 21
-72 24 -229 52 -239 42 -4 -3 11 -9 32 -12 81 -13 185 -49 357 -122 97 -42
176 -78 174 -79 -2 -2 -104 12 -228 31 -123 19 -231 35 -239 34 -50 -3 364
-93 525 -114 76 -10 193 -16 317 -16 109 1 209 -4 222 -9 28 -10 106 -78 106
-91 0 -5 -15 -9 -32 -10 -31 -1 -32 -1 -8 -9 24 -8 11 -15 -19 -11 -27 4 0
-18 32 -25 28 -6 30 -8 12 -16 -14 -6 -10 -7 15 -3 19 3 41 12 49 20 12 12 22
10 75 -19 34 -19 93 -44 131 -57 62 -21 85 -24 205 -21 158 3 189 -5 248 -61
l42 -42 -17 50 c-9 28 -16 74 -15 105 3 65 -19 128 -54 161 -14 13 -56 42 -92
64 -37 22 -68 48 -70 58 -2 12 37 58 121 140 160 157 224 243 327 432 l43 80
-44 -42 c-24 -23 -83 -70 -131 -103 -94 -64 -96 -63 -49 29 l21 39 -63 -25
c-34 -14 -77 -34 -94 -45 l-33 -20 5 44 c59 478 78 584 121 671 27 55 25 60
-7 15z m-74 -214 c-13 -60 -40 -221 -60 -359 -20 -137 -39 -252 -42 -255 -10
-9 5 464 17 525 7 33 21 77 32 99 21 40 70 107 75 102 1 -1 -8 -52 -22 -112z
m-129 -119 c-3 -44 -10 -116 -15 -160 -6 -44 -11 -120 -12 -170 l-2 -90 -12
95 c-18 131 -29 340 -21 382 4 20 16 48 28 64 l22 27 9 -34 c5 -19 6 -70 3
-114z m-96 -125 c4 -58 10 -150 13 -205 l5 -100 -24 70 c-76 213 -91 337 -52
407 l22 39 14 -53 c8 -29 17 -100 22 -158z m-64 -170 c18 -69 36 -136 39 -150
11 -45 -52 36 -95 122 -44 89 -58 167 -40 223 l12 37 25 -54 c14 -29 41 -109
59 -178z m-156 91 c0 -5 11 -22 24 -38 12 -15 33 -55 45 -88 13 -33 40 -93 60
-132 21 -40 35 -73 31 -73 -22 0 -119 105 -145 156 -31 62 -49 184 -26 184 6
0 11 -4 11 -9z m13 -227 c9 -18 39 -57 68 -88 55 -60 52 -68 -12 -35 -86 44
-159 141 -159 213 l0 35 44 -47 c24 -26 51 -61 59 -78z m527 72 c0 -2 -16 -45
-36 -96 -19 -51 -33 -94 -31 -97 3 -2 20 17 38 43 33 46 167 159 177 150 12
-13 -158 -246 -245 -337 -53 -54 -99 -99 -103 -99 -5 0 0 28 11 63 11 34 31
106 44 160 38 145 52 175 94 197 36 19 51 24 51 16z m-573 -149 c28 -26 73
-61 100 -78 l48 -31 -45 6 c-68 10 -140 55 -177 110 -18 27 -33 58 -33 69 0
23 -11 31 107 -76z m424 -23 c-35 -119 -58 -184 -101 -284 -34 -78 -55 -210
-31 -196 6 4 11 18 11 31 0 36 16 39 30 5 15 -37 7 -105 -19 -166 l-20 -44
-61 0 c-106 0 -248 60 -357 151 -159 132 -190 147 -526 254 -99 31 -177 58
-175 61 3 2 24 -3 48 -11 24 -8 89 -25 144 -36 92 -19 121 -20 323 -14 l222 7
24 -54 c32 -71 47 -119 47 -150 0 -17 11 -36 32 -53 29 -24 38 -27 91 -23 l59
4 -34 -17 -33 -18 28 -1 c16 0 37 5 48 10 10 6 19 8 19 6 0 -11 -60 -36 -85
-36 -15 0 -36 5 -48 11 -22 12 -22 12 -3 -9 40 -45 119 -36 172 19 27 28 29
37 34 127 5 94 7 100 62 209 54 104 98 230 98 278 0 19 19 49 27 42 1 -2 -10
-48 -26 -103z m-1191 -59 c19 -10 71 -33 115 -52 44 -18 74 -33 67 -33 -44 0
-273 115 -329 166 -16 14 3 6 42 -19 39 -24 86 -52 105 -62z m733 13 c31 -22
76 -47 100 -58 l42 -19 -55 0 c-34 -1 -68 6 -90 17 -35 17 -80 73 -80 99 0 16
1 15 83 -39z m335 -20 c9 -11 10 -18 4 -18 -17 0 -42 42 -41 70 1 24 1 24 11
-5 6 -16 17 -38 26 -47z m2 -64 c0 -2 -5 -4 -11 -4 -16 0 -69 56 -69 73 0 9
17 -2 40 -25 22 -22 40 -42 40 -44z m-315 -14 c17 -6 48 -15 70 -19 l40 -8
-43 -12 c-55 -15 -101 -2 -137 40 -37 45 -33 66 8 35 17 -13 46 -30 62 -36z
m263 -10 c29 -15 32 -19 16 -20 -27 0 -74 37 -74 58 1 15 2 15 11 -1 5 -9 27
-26 47 -37z m-218 -60 c33 0 41 -3 30 -10 -27 -17 -95 -11 -124 11 -38 30 -32
40 11 18 21 -10 58 -19 83 -19z m210 -12 c0 -12 -58 12 -63 26 -4 9 4 8 29 -3
18 -9 33 -19 34 -23z m-200 -32 c44 1 45 1 16 -11 -20 -8 -25 -14 -15 -18 8
-3 1 -6 -14 -6 -31 -1 -87 24 -87 39 0 6 11 7 28 3 15 -5 47 -8 72 -7z m19
-62 c2 -2 -5 -4 -17 -4 -29 0 -28 -17 1 -23 12 -2 7 -3 -12 -1 -19 2 -44 13
-55 24 l-21 20 50 -6 c28 -4 52 -8 54 -10z m-566 -51 c-13 -2 -33 -2 -45 0
-13 2 -3 4 22 4 25 0 35 -2 23 -4z m567 -14 c13 -7 13 -9 0 -10 -8 0 -1 -7 15
-15 l30 -15 -45 5 c-40 4 -70 25 -70 48 0 9 46 0 70 -13z m27 -64 c10 3 5 -1
-12 -9 -25 -12 -27 -15 -12 -21 9 -4 34 -4 55 -1 31 5 34 4 18 -5 -33 -20 -94
-14 -121 11 -39 37 -33 50 15 34 21 -8 47 -11 57 -9z m413 -94 c5 -11 10 -28
9 -38 0 -15 -2 -15 -9 3 -5 12 -13 25 -19 29 -6 3 -11 10 -11 16 0 16 19 10
30 -10z m-635 -21 c-3 -5 -11 -10 -16 -10 -6 0 -7 5 -4 10 3 6 11 10 16 10 6
0 7 -4 4 -10z m675 -131 c16 -30 8 -31 -13 -3 -10 13 -13 24 -8 24 6 0 15 -9
21 -21z"/>
<path d="M3328 3203 c7 -3 16 -2 19 1 4 3 -2 6 -13 5 -11 0 -14 -3 -6 -6z"/>
<path d="M3425 3179 c39 -10 74 -17 80 -16 11 4 -118 37 -137 36 -7 0 19 -9
57 -20z"/>
<path d="M2468 3183 c7 -3 16 -2 19 1 4 3 -2 6 -13 5 -11 0 -14 -3 -6 -6z"/>
<path d="M4230 2595 c-18 -22 -3 -55 26 -55 28 0 29 -5 9 -43 -8 -15 -9 -25
-4 -21 13 8 39 67 39 88 0 18 -27 46 -44 46 -8 0 -19 -7 -26 -15z"/>
<path d="M5615 2596 c-118 -29 -175 -88 -175 -182 0 -99 59 -143 235 -175 137
-24 172 -34 213 -59 67 -41 79 -146 25 -210 -45 -54 -97 -74 -193 -74 -74 -1
-92 3 -137 26 -78 42 -120 108 -94 149 15 25 14 29 -8 29 -29 0 -51 -27 -51
-63 0 -88 93 -147 244 -155 190 -10 305 55 322 180 9 62 -9 109 -56 152 -42
38 -97 58 -229 82 -178 32 -221 59 -221 139 0 95 82 155 210 155 117 -1 199
-41 234 -115 18 -37 30 -39 38 -7 26 96 -183 171 -357 128z"/>
<path d="M3380 2561 l0 -29 39 14 c21 7 68 18 104 25 103 19 97 42 97 -347 l0
-334 30 0 30 0 2 343 3 342 55 -2 c30 -1 83 -11 118 -21 l62 -20 0 29 0 29
-270 0 -270 0 0 -29z"/>
<path d="M4400 2240 l0 -350 30 0 30 0 0 350 0 350 -30 0 -30 0 0 -350z"/>
<path d="M4570 2241 l0 -351 30 0 c17 0 30 5 30 13 0 6 -9 138 -20 292 -23
322 -23 335 -11 335 4 0 64 -106 132 -235 68 -129 126 -234 129 -234 3 0 54
105 114 234 60 129 113 235 118 235 4 0 8 -144 8 -320 l0 -320 30 0 30 0 0
350 0 350 -33 0 -33 0 -101 -217 c-56 -120 -107 -219 -115 -221 -8 -1 -57 81
-128 215 -112 210 -117 218 -148 221 l-32 3 0 -350z"/>
<path d="M5270 2240 l0 -350 30 0 30 0 0 350 0 350 -30 0 -30 0 0 -350z"/>
<path d="M6277 2572 c2 -10 -48 -164 -111 -342 -64 -178 -116 -327 -116 -332
0 -4 13 -8 29 -8 27 0 30 4 47 71 24 91 43 121 90 144 60 28 120 30 185 6 72
-27 119 -75 154 -156 25 -59 30 -65 57 -65 25 0 29 3 24 18 -4 9 -73 166 -154
349 l-147 332 -32 1 c-25 0 -30 -3 -26 -18z m124 -271 c49 -112 88 -205 86
-208 -3 -2 -26 9 -52 26 -78 49 -134 56 -232 26 -13 -4 -23 -5 -23 -2 0 6 97
344 105 366 9 25 22 2 116 -208z"/>
<path d="M6700 2240 l0 -350 30 0 30 0 0 116 c0 132 10 165 68 215 71 63 189
96 277 80 82 -15 85 -24 85 -232 l0 -179 30 0 30 0 0 350 0 350 -30 0 -30 0 0
-150 c0 -82 -2 -150 -4 -150 -2 0 -21 7 -42 17 -47 20 -181 23 -241 5 -23 -7
-64 -28 -92 -47 l-51 -34 0 180 0 179 -30 0 -30 0 0 -350z"/>
<path d="M7391 2473 c44 -65 102 -149 128 -187 l46 -69 3 -164 4 -163 23 0 23
0 4 168 3 167 94 135 c52 74 110 157 129 183 l35 48 -33 -3 c-31 -3 -38 -12
-129 -170 -52 -93 -101 -168 -108 -168 -6 0 -64 77 -129 170 -106 155 -119
170 -146 170 l-29 0 82 -117z"/>
<path d="M4085 1670 c-3 -5 -1 -10 4 -10 6 0 11 5 11 10 0 6 -2 10 -4 10 -3 0
-8 -4 -11 -10z"/>
<path d="M3925 1628 c11 -6 26 -18 33 -26 11 -14 12 -14 12 1 0 10 -12 22 -26
27 -34 13 -44 12 -19 -2z"/>
<path d="M4006 1627 c-13 -28 2 -158 21 -179 9 -10 20 -18 26 -18 5 0 0 8 -12
18 -18 15 -21 30 -23 107 -2 61 -6 84 -12 72z"/>
<path d="M4152 1562 c-1 -46 -7 -92 -12 -103 -8 -13 -7 -19 0 -19 18 0 21 22
17 116 l-3 89 -2 -83z"/>
<path d="M4300 1633 c8 -3 23 -12 33 -21 10 -9 17 -11 17 -4 0 13 -32 32 -52
31 -9 0 -8 -2 2 -6z"/>
<path d="M4514 1535 c0 -60 1 -84 3 -52 2 32 2 81 0 110 -2 29 -3 3 -3 -58z"/>
<path d="M4681 1619 c11 -11 24 -18 27 -14 4 4 -2 13 -12 21 -30 21 -39 17
-15 -7z"/>
<path d="M4800 1631 c0 -4 11 -6 25 -3 14 2 25 6 25 8 0 2 -11 4 -25 4 -14 0
-25 -4 -25 -9z"/>
<path d="M4869 1538 c5 -106 8 -98 13 30 2 43 -1 72 -7 72 -6 0 -8 -38 -6
-102z"/>
<path d="M4900 1636 c0 -2 11 -6 25 -8 14 -3 25 -1 25 3 0 5 -11 9 -25 9 -14
0 -25 -2 -25 -4z"/>
<path d="M4980 1540 c0 -60 4 -100 10 -100 6 0 10 15 10 33 0 42 17 65 55 76
l30 9 -27 1 c-15 1 -30 -3 -33 -9 -14 -23 -25 -7 -25 40 0 28 -4 50 -10 50 -6
0 -10 -40 -10 -100z"/>
<path d="M5120 1540 c0 -60 4 -100 10 -100 6 0 10 40 10 100 0 60 -4 100 -10
100 -6 0 -10 -40 -10 -100z"/>
<path d="M5170 1540 c0 -60 4 -100 10 -100 6 0 10 23 10 51 l0 51 50 -4 c28
-1 50 0 50 5 0 4 -22 7 -50 7 l-50 0 0 45 c0 25 -4 45 -10 45 -6 0 -10 -40
-10 -100z"/>
<path d="M5263 1633 c9 -2 25 -2 35 0 9 3 1 5 -18 5 -19 0 -27 -2 -17 -5z"/>
<path d="M5460 1637 c0 -2 14 -32 30 -66 17 -34 28 -66 25 -72 -4 -5 -2 -9 3
-9 5 0 14 -11 20 -25 6 -14 16 -25 21 -25 5 0 -11 45 -36 100 -26 55 -50 100
-55 100 -4 0 -8 -1 -8 -3z"/>
<path d="M5606 1563 c20 -43 40 -88 45 -101 5 -13 13 -21 18 -18 5 3 -1 25
-13 48 -12 24 -32 67 -44 96 -12 28 -27 52 -32 52 -5 0 7 -35 26 -77z"/>
<path d="M5661 1638 c-1 -3 8 -27 19 -52 15 -35 17 -52 10 -72 -15 -38 -11
-54 4 -19 l13 30 18 -42 c9 -24 21 -43 25 -43 10 0 22 31 15 38 -3 3 -5 -1 -6
-9 0 -8 -11 8 -24 35 -22 45 -22 51 -9 88 17 48 17 48 5 48 -5 0 -12 -15 -15
-32 -7 -35 -8 -35 -43 19 -6 10 -12 15 -12 11z"/>
<path d="M5790 1569 c-12 -39 -20 -72 -18 -74 2 -2 15 30 29 71 14 41 22 74
18 74 -5 0 -18 -32 -29 -71z"/>
<path d="M5902 1633 c5 -11 57 -120 77 -160 18 -37 35 -45 22 -10 -31 78 -82
177 -92 177 -6 0 -9 -3 -7 -7z"/>
<path d="M6020 1637 c0 -4 16 -30 35 -58 26 -39 35 -63 37 -98 l1 -46 6 54 c5
47 3 59 -16 80 -12 14 -31 37 -42 51 -11 14 -20 22 -21 17z"/>
<path d="M6137 1603 c-15 -32 -15 -35 -1 -18 24 30 36 55 26 55 -4 0 -16 -17
-25 -37z"/>
<path d="M3600 1527 c0 -67 -4 -107 -12 -115 -9 -9 -9 -12 0 -12 6 0 16 9 22
19 13 25 13 211 0 211 -6 0 -10 -41 -10 -103z"/>
<path d="M3650 1530 c0 -55 3 -100 8 -100 4 0 7 45 7 100 0 55 -3 100 -7 100
-5 0 -8 -45 -8 -100z"/>
<path d="M3758 1623 c6 -2 18 -2 25 0 6 3 1 5 -13 5 -14 0 -19 -2 -12 -5z"/>
<path d="M3832 1618 c-16 -16 -15 -53 1 -66 6 -6 37 -16 67 -24 55 -13 55 -13
55 -51 0 -32 2 -35 13 -20 29 41 2 78 -66 89 -62 10 -79 25 -64 58 13 29 12
32 -6 14z"/>
<path d="M4206 1614 c-20 -19 -20 -24 -1 -51 9 -13 31 -24 57 -28 24 -4 51
-11 61 -17 20 -10 23 -48 5 -66 -7 -7 -9 -12 -5 -12 3 0 14 11 23 25 26 39 0
70 -71 85 -60 12 -76 30 -56 61 14 23 8 24 -13 3z"/>
<path d="M4560 1615 c-28 -34 0 -61 90 -87 50 -14 64 -43 35 -72 -9 -9 -13
-16 -8 -16 31 0 45 68 18 90 -8 7 -38 17 -67 24 -51 11 -53 13 -53 44 0 37 1
36 -15 17z"/>
<path d="M5871 1537 c-13 -39 -26 -78 -28 -84 -3 -7 0 -13 6 -13 6 0 11 8 11
18 0 22 26 47 55 56 12 3 9 4 -7 2 -31 -4 -34 5 -17 53 6 18 9 34 7 36 -2 3
-15 -28 -27 -68z"/>
<path d="M5421 1514 c-13 -36 -21 -68 -17 -71 3 -3 10 6 15 20 6 14 23 33 38
42 l28 16 -27 -6 c-26 -5 -27 -4 -16 25 6 17 9 33 6 35 -2 2 -14 -25 -27 -61z"/>
<path d="M3723 1533 c9 -2 25 -2 35 0 9 3 1 5 -18 5 -19 0 -27 -2 -17 -5z"/>
<path d="M4555 1487 c-7 -18 9 -47 27 -47 7 0 7 4 0 13 -5 6 -12 21 -14 32 -5
18 -6 19 -13 2z"/>
<path d="M3816 1482 c-8 -13 27 -52 47 -52 6 0 4 5 -6 11 -10 6 -22 20 -26 32
-5 13 -10 16 -15 9z"/>
<path d="M4190 1476 c0 -15 37 -46 54 -46 6 0 0 7 -12 16 -12 8 -22 22 -22 30
0 8 -4 14 -10 14 -5 0 -10 -6 -10 -14z"/>
<path d="M3740 1440 l-45 -7 48 -1 c26 -1 47 3 47 8 0 6 -1 9 -2 8 -2 0 -23
-4 -48 -8z"/>
<path d="M5268 1443 c12 -2 30 -2 40 0 9 3 -1 5 -23 4 -22 0 -30 -2 -17 -4z"/>
</g>
</svg>
